# xmcd
#
# Track frame offsets: 
#        150
#        11701
#        22904
#        34193
#        44798
#        57833
#        70062
#        82850
#        96745
#        108525
#        119852
#        131739
#
# Disc length: 1898 seconds
#
# Revision: 0
# Processed by: cddbd v1.5.2PL0 Copyright (c) Steve Scherf et al.
# Submitted via: ExactAudioCopy v1.0b1
#
DISCID=ac07680c
DTITLE=Sam and Dave - Hold On, I'm Comin'
DYEAR=1966
DGENRE=R&B
TTITLE0=Hold On, I'm Comin' (mono)
TTITLE1=If You Got The Loving (stereo)
TTITLE2=I Take What I Want (mono)
TTITLE3=Ease Me (stereo)
TTITLE4=I Got Everything I Need (mono)
TTITLE5=Don't Make It So Hard On Me (mono)
TTITLE6=It's A Wonder (stereo)
TTITLE7=Don't Help Me Out (stereo)
TTITLE8=Just Me (stereo)
TTITLE9=You Got It Made (stereo)
TTITLE10=You Don't Know Like I Know (mono)
TTITLE11=Blame Me (Don't Blame My Heart) (mono)
EXTD=
EXTT0=
EXTT1=
EXTT2=
EXTT3=
EXTT4=
EXTT5=
EXTT6=
EXTT7=
EXTT8=
EXTT9=
EXTT10=
EXTT11=
PLAYORDER=
